# xmcd
#
# Track frame offsets:
#	150
#	21378
#	42329
#	67413
#	87531
#	116424
#	138571
#	181283
#	212953
#	236514
#	254327
#	274957
#
# Disc length: 4127 seconds
#
# Revision: 0
# Processed by: cddbd v1.5.1PL0 Copyright (c) Steve Scherf et al.
# Submitted via: dBpowerAMP V4.0
#
DISCID=be101d0c
DTITLE=Ejder - My Eyes
DYEAR=2004
DGENRE=Country
TTITLE0=Don't Believe
TTITLE1=Love
TTITLE2=I Let You Go
TTITLE3=For A Gracefull Walking
TTITLE4=Bêrîvanê
TTITLE5=One More Time
TTITLE6=Good Night
TTITLE7=Where Have You Been
TTITLE8=My Dear Lover
TTITLE9=Mamma
TTITLE10=How It's Possible
TTITLE11=Why You Deny
EXTD=Album of Ejder. A songer from Slêmanî, South of Kurdistan. Edit and published by Ari Nakam from Oslo, Norway
EXTT0=
EXTT1=
EXTT2=
EXTT3=
EXTT4=
EXTT5=
EXTT6=
EXTT7=
EXTT8=
EXTT9=
EXTT10=
EXTT11=
PLAYORDER=
